<?xml version="1.0" standalone="no"?>
<!DOCTYPE svg PUBLIC "-//W3C//DTD SVG 20010904//EN"
 "http://www.w3.org/TR/2001/REC-SVG-20010904/DTD/svg10.dtd">
<svg version="1.0" xmlns="http://www.w3.org/2000/svg"
 width="447.000000pt" height="447.000000pt" viewBox="0 0 447.000000 447.000000"
 preserveAspectRatio="xMidYMid meet">

<g transform="translate(0.000000,447.000000) scale(0.100000,-0.100000)"
fill="#000000" stroke="none">
<path d="M2118 3508 l-3 -123 -122 -3 -123 -3 0 -119 0 -119 123 -3 122 -3 0
-169 0 -170 -70 -17 c-164 -40 -269 -100 -390 -223 -218 -220 -293 -512 -209
-804 66 -228 238 -427 454 -524 152 -69 370 -89 533 -48 550 138 801 774 494
1249 -112 173 -313 313 -504 352 l-63 13 0 173 0 173 125 0 125 0 0 120 0 119
-122 3 -123 3 -3 123 -3 122 -119 0 -119 0 -3 -122z m283 -974 c176 -51 328
-201 385 -378 139 -436 -264 -854 -705 -730 -98 28 -172 73 -251 153 -86 86
-132 169 -155 278 -43 202 11 380 159 528 88 87 169 134 266 154 30 6 64 13
75 15 35 8 170 -4 226 -20z"/>
<path d="M2996 1394 c-40 -55 -149 -164 -199 -200 l-28 -20 55 -83 c31 -46 56
-94 56 -107 0 -13 3 -24 6 -24 19 0 153 112 220 183 l77 82 -71 3 -71 3 -3
108 -3 107 -39 -52z"/>
<path d="M1438 1340 l-3 -105 -67 -3 c-38 -2 -68 -5 -68 -8 0 -26 271 -274
299 -274 5 0 7 9 4 20 -5 18 17 60 90 171 l18 26 -71 58 c-64 53 -139 133
-182 195 -16 24 -17 22 -20 -80z"/>
<path d="M1706 1109 c-36 -54 -66 -101 -66 -104 0 -3 35 -22 78 -44 267 -134
600 -158 881 -64 88 29 241 102 241 115 0 6 -106 172 -126 196 -1 2 -35 -12
-76 -31 -104 -49 -191 -74 -305 -87 -168 -18 -331 9 -480 79 l-81 39 -66 -99z
m205 -1 c31 -9 36 -13 24 -22 -7 -6 -17 -23 -20 -37 -6 -23 -2 -28 24 -37 29
-10 31 -10 37 23 3 19 3 39 -2 46 -5 9 -2 10 10 6 10 -4 29 -10 42 -13 21 -5
22 -8 9 -27 -19 -31 -48 -135 -40 -147 7 -12 -1 -12 -44 -4 -28 6 -30 8 -18
23 8 9 17 28 21 42 6 27 -6 39 -39 39 -14 0 -38 -57 -29 -71 8 -13 -16 -10
-51 6 -16 7 -23 14 -15 14 23 1 67 151 48 162 -18 12 -2 11 43 -3z m719 -6
c29 -24 21 -67 -15 -84 -30 -13 -32 -41 -6 -67 19 -19 19 -20 -7 -29 -15 -6
-36 -14 -47 -18 -17 -7 -18 -6 -7 8 11 14 9 27 -10 83 -15 44 -30 70 -42 75
-16 6 -12 10 25 23 89 32 82 31 109 9z m-189 -42 c20 -11 26 -54 9 -65 -6 -4
0 -15 15 -27 14 -10 25 -26 25 -33 0 -25 -41 -53 -88 -60 -26 -3 -56 -8 -67
-11 -16 -4 -17 -3 -6 5 13 8 13 21 3 87 -7 43 -18 81 -24 85 -6 4 8 12 33 17
60 13 77 14 100 2z m-288 -40 c-3 -22 -2 -40 2 -40 5 0 24 12 43 26 26 20 31
29 21 35 -9 6 -1 9 24 9 20 0 37 -2 37 -4 0 -2 -20 -17 -45 -33 -25 -15 -45
-31 -45 -34 0 -3 18 -31 41 -62 l40 -57 -40 0 c-34 0 -41 3 -41 19 0 11 -11
33 -25 48 l-26 28 3 -42 4 -43 -41 0 c-22 0 -35 4 -28 8 6 4 15 43 19 86 5 62
4 80 -7 87 -9 6 0 9 28 9 l41 0 -5 -40z"/>
<path d="M2564 1060 c16 -38 31 -40 31 -2 0 20 -5 28 -22 30 -22 3 -22 2 -9
-28z"/>
<path d="M2370 1021 c0 -36 17 -49 37 -28 12 11 13 19 4 36 -17 31 -41 27 -41
-8z"/>
<path d="M2385 960 c-4 -6 -3 -24 0 -41 9 -38 39 -36 43 3 3 29 -30 58 -43 38z"/>
<path d="M1630 959 c0 -12 5 -19 12 -17 18 6 20 25 3 31 -10 5 -15 0 -15 -14z"/>
<path d="M2834 969 c-3 -6 -1 -16 5 -22 8 -8 11 -5 11 11 0 24 -5 28 -16 11z"/>
</g>
</svg>
